<svg width="51" height="51" viewBox="0 0 51 51" fill="none" xmlns="http://www.w3.org/2000/svg">
<path d="M25.5017 0.0175321C11.3981 0.0175321 0 11.4051 0 25.5071C0 39.6091 11.3948 51 25.5017 51C39.6052 51 51 39.6091 51 25.5071C51 25.0086 50.6107 24.6211 50.1104 24.6211H50.107C49.6117 24.6244 49.224 25.0086 49.224 25.5071C49.224 38.5757 38.5764 49.2197 25.5033 49.2197C12.4303 49.2197 1.78261 38.5757 1.78261 25.5071C1.78261 12.4385 12.4303 1.79457 25.5033 1.79457C29.153 1.79457 32.7315 2.6276 35.9737 4.22412L37.0091 4.73586L34.6053 7.14554C34.1165 7.6341 34.2921 8.39427 34.9515 8.61453L45.2546 12.0494C45.9984 12.2961 46.623 11.6585 46.3778 10.9232L42.9451 0.62699C42.7264 -0.0271835 41.9627 -0.212671 41.4723 0.277545L38.3014 3.4507L37.758 3.14928C34.0171 1.09733 29.8091 0.0175321 25.505 0.0175321H25.5017ZM41.7092 2.54976L44.1263 9.79867L36.8749 7.38237L40.7616 3.49707L41.7092 2.54976ZM25.5017 7.45689C25.0013 7.45689 24.6153 7.84277 24.6153 8.34292C24.6153 8.84308 25.003 9.23227 25.5017 9.23227C26.0003 9.23227 26.3913 8.84142 26.3913 8.34292C26.3913 7.84443 26.002 7.45689 25.5017 7.45689ZM8.33323 24.6211C7.8329 24.6211 7.44358 25.0086 7.44358 25.5071C7.44358 26.0056 7.83456 26.3965 8.33323 26.3965C8.83189 26.3965 9.21956 26.0073 9.21956 25.5071C9.21956 25.007 8.83355 24.6211 8.33323 24.6211ZM42.6701 24.6211C42.1698 24.6211 41.7838 25.007 41.7838 25.5071C41.7838 26.0073 42.1714 26.3965 42.6701 26.3965C43.1688 26.3965 43.5597 26.0056 43.5597 25.5071C43.5597 25.0086 43.1704 24.6211 42.6701 24.6211ZM25.5017 41.7836C25.0013 41.7836 24.6153 42.1695 24.6153 42.6696C24.6153 43.1698 25.003 43.559 25.5017 43.559C26.0003 43.559 26.3913 43.1681 26.3913 42.6696C26.3913 42.1711 26.002 41.7836 25.5017 41.7836Z" fill="#FF5C00"/>
</svg>
