<svg width="52" height="54" viewBox="0 0 52 54" fill="none" xmlns="http://www.w3.org/2000/svg">
<path d="M51.3824 16.0829C50.4135 13.6535 48.4529 11.8785 46.0036 11.2121C43.6574 10.5748 41.818 8.66468 41.2036 6.22796C40.5626 3.68447 38.8533 1.64849 36.5142 0.642037C34.175 -0.365078 31.5793 -0.180528 29.3941 1.14757C27.3002 2.41965 24.6998 2.41965 22.6059 1.14757C20.42 -0.180528 17.8247 -0.36376 15.4858 0.642037C13.1467 1.64849 11.4374 3.68447 10.7964 6.22796C10.182 8.66468 8.3426 10.5748 5.99642 11.2121C3.54711 11.8785 1.58651 13.6535 0.61764 16.0829C-0.351232 18.5117 -0.173833 21.2068 1.10477 23.4761C2.32943 25.6499 2.32943 28.3509 1.10477 30.5246C-0.173833 32.7939 -0.351232 35.489 0.61764 37.9178C1.58651 40.3473 3.54711 42.1222 5.99642 42.7886C8.3426 43.426 10.182 45.336 10.7964 47.7728C11.4374 50.3163 13.1467 52.3522 15.4858 53.3587C17.8244 54.3645 20.42 54.1799 22.6059 52.8532C24.6998 51.5811 27.3002 51.5811 29.3941 52.8532C30.6482 53.6151 32.037 54 33.4349 54C34.4733 54 35.517 53.7871 36.5142 53.3587C38.8533 52.3522 40.5626 50.3163 41.2036 47.7728C41.818 45.336 43.6574 43.426 46.0036 42.7886C48.4529 42.1222 50.4135 40.3473 51.3824 37.9178C52.3512 35.489 52.1738 32.7939 50.8952 30.5246C49.6706 28.3509 49.6706 25.6499 50.8952 23.4761C52.1738 21.2068 52.3512 18.5117 51.3824 16.0829ZM49.7731 22.7946C48.3117 25.3888 48.3117 28.6119 49.7731 31.2061C50.8444 33.1076 50.9933 35.3657 50.1815 37.4017C49.3694 39.437 47.7268 40.9246 45.6742 41.4823C42.8742 42.2435 40.6794 44.5234 39.9463 47.4313C39.409 49.5622 37.9768 51.268 36.0169 52.1117C34.0556 52.954 31.8815 52.7991 30.0503 51.6879C28.8013 50.9286 27.4008 50.5489 26 50.5489C24.5995 50.5489 23.1987 50.9286 21.9496 51.6879C20.1189 52.8011 17.9437 52.9547 15.9831 52.1117C14.0232 51.268 12.591 49.5622 12.0537 47.4313C11.3206 44.5234 9.12582 42.2435 6.32583 41.4823C4.27321 40.9246 2.6306 39.437 1.8185 37.4017C1.00671 35.3657 1.15555 33.1076 2.22693 31.2061C3.68833 28.6119 3.68833 25.3888 2.22693 22.7946C1.15555 20.8931 1.00671 18.635 1.8185 16.599C2.6306 14.5637 4.27321 13.0761 6.32583 12.5185C9.12582 11.7572 11.3206 9.47736 12.0537 6.56938C12.591 4.43849 14.0232 2.73272 15.9831 1.88907C17.944 1.04607 20.1182 1.20096 21.9496 2.31287C24.4478 3.83145 27.5522 3.83145 30.0503 2.31287C31.8815 1.19964 34.0566 1.04607 36.0169 1.88907C37.9768 2.73272 39.409 4.43849 39.9463 6.56938C40.6794 9.47736 42.8742 11.7572 45.6742 12.5185C47.7268 13.0761 49.3694 14.5637 50.1815 16.599C50.9933 18.635 50.8444 20.8931 49.7731 22.7946Z" fill="#FF5C00"/>
<path d="M26 14.6569C29.1228 14.6569 31.6636 17.2745 31.6636 20.4926C31.6636 20.8731 31.9628 21.1811 32.3318 21.1811C32.7008 21.1811 33 20.8731 33 20.4926C33 16.7477 30.2156 13.6627 26.6682 13.3147V9.68853C26.6682 9.30796 26.369 9 26 9C25.631 9 25.3318 9.30796 25.3318 9.68853V13.3147C21.7844 13.6627 19 16.7477 19 20.4926C19 24.4698 22.1401 27.7053 26 27.7053C29.1228 27.7053 31.6636 30.323 31.6636 33.5411C31.6636 36.7591 29.1228 39.3768 26 39.3768C22.8772 39.3768 20.3364 36.7591 20.3364 33.5411C20.3364 33.1605 20.0372 32.8525 19.6682 32.8525C19.2992 32.8525 19 33.1605 19 33.5411C19 37.2859 21.7844 40.3709 25.3318 40.7189V44.3115C25.3318 44.692 25.631 45 26 45C26.369 45 26.6682 44.692 26.6682 44.3115V40.7189C30.2156 40.3709 33 37.2859 33 33.5411C33 29.5638 29.8599 26.3283 26 26.3283C22.8772 26.3283 20.3364 23.7106 20.3364 20.4926C20.3364 17.2745 22.8772 14.6569 26 14.6569Z" fill="#FF5C00"/>
</svg>
