<svg width="174" height="28" viewBox="0 0 174 28" fill="none" xmlns="http://www.w3.org/2000/svg">
<path d="M13.0489 2.92705C13.3483 2.00574 14.6517 2.00574 14.9511 2.92705L16.9187 8.98278C17.0526 9.3948 17.4365 9.67376 17.8697 9.67376H24.2371C25.2058 9.67376 25.6086 10.9134 24.8249 11.4828L19.6736 15.2254C19.3231 15.4801 19.1764 15.9314 19.3103 16.3435L21.2779 22.3992C21.5773 23.3205 20.5228 24.0866 19.7391 23.5172L14.5878 19.7746C14.2373 19.5199 13.7627 19.5199 13.4122 19.7746L8.2609 23.5172C7.47719 24.0866 6.42271 23.3205 6.72206 22.3992L8.68969 16.3435C8.82356 15.9314 8.6769 15.4801 8.32642 15.2254L3.17511 11.4828C2.39139 10.9134 2.79417 9.67376 3.76289 9.67376H10.1303C10.5635 9.67376 10.9474 9.3948 11.0813 8.98278L13.0489 2.92705Z" fill="#F2C94C"/>
<path d="M41.0489 2.92705C41.3483 2.00574 42.6517 2.00574 42.9511 2.92705L44.9187 8.98278C45.0526 9.3948 45.4365 9.67376 45.8697 9.67376H52.2371C53.2058 9.67376 53.6086 10.9134 52.8249 11.4828L47.6736 15.2254C47.3231 15.4801 47.1764 15.9314 47.3103 16.3435L49.2779 22.3992C49.5773 23.3205 48.5228 24.0866 47.7391 23.5172L42.5878 19.7746C42.2373 19.5199 41.7627 19.5199 41.4122 19.7746L36.2609 23.5172C35.4772 24.0866 34.4227 23.3205 34.7221 22.3992L36.6897 16.3435C36.8236 15.9314 36.6769 15.4801 36.3264 15.2254L31.1751 11.4828C30.3914 10.9134 30.7942 9.67376 31.7629 9.67376H38.1303C38.5635 9.67376 38.9474 9.3948 39.0813 8.98278L41.0489 2.92705Z" fill="#F2C94C"/>
<path d="M69.0489 2.92705C69.3483 2.00574 70.6517 2.00574 70.9511 2.92705L72.9187 8.98278C73.0526 9.3948 73.4365 9.67376 73.8697 9.67376H80.2371C81.2058 9.67376 81.6086 10.9134 80.8249 11.4828L75.6736 15.2254C75.3231 15.4801 75.1764 15.9314 75.3103 16.3435L77.2779 22.3992C77.5773 23.3205 76.5228 24.0866 75.7391 23.5172L70.5878 19.7746C70.2373 19.5199 69.7627 19.5199 69.4122 19.7746L64.2609 23.5172C63.4772 24.0866 62.4227 23.3205 62.7221 22.3992L64.6897 16.3435C64.8236 15.9314 64.6769 15.4801 64.3264 15.2254L59.1751 11.4828C58.3914 10.9134 58.7942 9.67376 59.7629 9.67376H66.1303C66.5635 9.67376 66.9474 9.3948 67.0813 8.98278L69.0489 2.92705Z" fill="#F2C94C"/>
<path d="M97.0489 2.92705C97.3483 2.00574 98.6517 2.00574 98.9511 2.92705L100.919 8.98278C101.053 9.3948 101.437 9.67376 101.87 9.67376H108.237C109.206 9.67376 109.609 10.9134 108.825 11.4828L103.674 15.2254C103.323 15.4801 103.176 15.9314 103.31 16.3435L105.278 22.3992C105.577 23.3205 104.523 24.0866 103.739 23.5172L98.5878 19.7746C98.2373 19.5199 97.7627 19.5199 97.4122 19.7746L92.2609 23.5172C91.4772 24.0866 90.4227 23.3205 90.7221 22.3992L92.6897 16.3435C92.8236 15.9314 92.6769 15.4801 92.3264 15.2254L87.1751 11.4828C86.3914 10.9134 86.7942 9.67376 87.7629 9.67376H94.1303C94.5635 9.67376 94.9474 9.3948 95.0813 8.98278L97.0489 2.92705Z" fill="#F2C94C"/>
<path d="M126.476 3.08156L128.443 9.13729C128.644 9.75532 129.22 10.1738 129.87 10.1738H136.237C136.721 10.1738 136.923 10.7936 136.531 11.0783L131.38 14.8209C130.854 15.2029 130.634 15.8799 130.835 16.498L132.802 22.5537C132.952 23.0143 132.425 23.3974 132.033 23.1127L126.882 19.3701C126.356 18.9881 125.644 18.9881 125.118 19.3701L119.967 23.1127C119.575 23.3974 119.048 23.0144 119.198 22.5537L121.165 16.498C121.366 15.8799 121.146 15.2029 120.62 14.8209L115.469 11.0783C115.077 10.7936 115.279 10.1738 115.763 10.1738H122.13C122.78 10.1738 123.356 9.75532 123.557 9.13729L125.524 3.08156C125.674 2.6209 126.326 2.6209 126.476 3.08156Z" fill="#F2C94C" stroke="#F2C94C"/>
<path d="M155.192 20.1593C154.526 20.1593 153.925 20.0268 153.391 19.7616C152.857 19.4965 152.429 19.1328 152.107 18.6707C151.785 18.2086 151.609 17.6821 151.579 17.0912H152.942C152.996 17.6177 153.234 18.0533 153.658 18.398C154.086 18.7389 154.598 18.9093 155.192 18.9093C155.67 18.9093 156.094 18.7976 156.465 18.5741C156.84 18.3506 157.134 18.0438 157.346 17.6537C157.562 17.2597 157.67 16.8146 157.67 16.3184C157.67 15.8109 157.558 15.3582 157.335 14.9605C157.115 14.559 156.812 14.2427 156.425 14.0116C156.039 13.7805 155.598 13.6631 155.102 13.6593C154.746 13.6555 154.38 13.7105 154.005 13.8241C153.63 13.934 153.321 14.076 153.079 14.2502L151.761 14.0912L152.465 8.36388H158.511V9.61388H153.647L153.238 13.0457H153.306C153.545 12.8563 153.844 12.6991 154.204 12.5741C154.564 12.4491 154.939 12.3866 155.329 12.3866C156.041 12.3866 156.675 12.5571 157.232 12.898C157.793 13.2351 158.232 13.6972 158.55 14.2843C158.872 14.8715 159.033 15.5419 159.033 16.2957C159.033 17.0381 158.867 17.701 158.533 18.2843C158.204 18.8639 157.749 19.3222 157.17 19.6593C156.59 19.9927 155.931 20.1593 155.192 20.1593ZM161.853 20.0912C161.573 20.0912 161.332 19.9908 161.131 19.79C160.931 19.5893 160.83 19.3487 160.83 19.0684C160.83 18.7881 160.931 18.5476 161.131 18.3468C161.332 18.1461 161.573 18.0457 161.853 18.0457C162.133 18.0457 162.374 18.1461 162.575 18.3468C162.775 18.5476 162.876 18.7881 162.876 19.0684C162.876 19.254 162.828 19.4245 162.734 19.5798C162.643 19.7351 162.52 19.8601 162.364 19.9548C162.213 20.0457 162.042 20.0912 161.853 20.0912ZM168.648 20.1593C167.792 20.1593 167.063 19.9264 166.461 19.4605C165.859 18.9908 165.398 18.3109 165.08 17.4207C164.762 16.5268 164.603 15.4472 164.603 14.1821C164.603 12.9245 164.762 11.8506 165.08 10.9605C165.402 10.0665 165.864 9.38471 166.467 8.91502C167.073 8.44153 167.8 8.20479 168.648 8.20479C169.497 8.20479 170.222 8.44153 170.825 8.91502C171.431 9.38471 171.893 10.0665 172.211 10.9605C172.533 11.8506 172.694 12.9245 172.694 14.1821C172.694 15.4472 172.535 16.5268 172.217 17.4207C171.898 18.3109 171.438 18.9908 170.836 19.4605C170.234 19.9264 169.504 20.1593 168.648 20.1593ZM168.648 18.9093C169.497 18.9093 170.156 18.5002 170.626 17.6821C171.095 16.8639 171.33 15.6972 171.33 14.1821C171.33 13.1745 171.222 12.3165 171.006 11.6082C170.794 10.8999 170.487 10.3601 170.086 9.98888C169.688 9.61767 169.209 9.43206 168.648 9.43206C167.808 9.43206 167.15 9.84683 166.677 10.6764C166.203 11.5021 165.967 12.6707 165.967 14.1821C165.967 15.1896 166.073 16.0457 166.285 16.7502C166.497 17.4548 166.802 17.9908 167.2 18.3582C167.601 18.7256 168.084 18.9093 168.648 18.9093Z" fill="#F2994A"/>
</svg>
