<svg width="58" height="58" viewBox="0 0 58 58" fill="none" xmlns="http://www.w3.org/2000/svg">
<path fill-rule="evenodd" clip-rule="evenodd" d="M29.0034 0C12.9958 0 0 12.9942 0 29C0 45.0058 12.9958 58 29.0034 58C45.0111 58 58 45.0056 58 29C58 12.9944 45.0111 0 29.0034 0ZM29.0034 1.35925C44.2762 1.35925 56.6405 13.7288 56.6405 29C56.6405 44.2711 44.2762 56.6407 29.0034 56.6407C13.7306 56.6407 1.35945 44.2709 1.35945 29C1.35945 13.729 13.7306 1.35925 29.0034 1.35925Z" fill="#FF5C00"/>
<path fill-rule="evenodd" clip-rule="evenodd" d="M15.6724 37C15.5513 36.9987 15.4322 37.0306 15.3279 37.0922C15.2236 37.1538 15.138 37.2429 15.0803 37.3498C15.0227 37.4567 14.9951 37.5774 15.0007 37.6988C15.0063 37.8203 15.0447 37.9379 15.1119 38.039C18.2048 42.8415 23.268 46 29.0035 46C34.7326 46 39.8019 42.8418 42.895 38.039C42.9898 37.8903 43.0222 37.7098 42.9849 37.5372C42.9476 37.3645 42.8438 37.2137 42.6962 37.1178C42.5485 37.0218 42.3691 36.9885 42.197 37.0251C42.025 37.0618 41.8744 37.1653 41.7782 37.3132C38.8996 41.7828 34.2467 44.6639 29.0035 44.6639C23.7532 44.6639 19.1074 41.7832 16.2287 37.3132C16.1695 37.2183 16.0875 37.1399 15.9903 37.0852C15.8931 37.0305 15.7838 37.0012 15.6724 37Z" fill="#FF5C00"/>
<path fill-rule="evenodd" clip-rule="evenodd" d="M19.5031 19C17.5773 19 16 20.7938 16 22.9965C16 25.1992 17.5758 27 19.5031 27C21.4255 27 23 25.1992 23 22.9965C23 20.7938 21.424 19 19.5031 19ZM19.5031 20.4072C20.759 20.4072 21.7687 21.5545 21.7687 22.9965C21.7687 24.4385 20.7574 25.5928 19.5031 25.5928C18.2413 25.5928 17.2313 24.4385 17.2313 22.9965C17.2313 21.5545 18.2397 20.4072 19.5031 20.4072Z" fill="#FF5C00"/>
<path fill-rule="evenodd" clip-rule="evenodd" d="M38.5 19C36.5759 19 35 20.7938 35 22.9965C35 25.1992 36.5744 27 38.5 27C40.4256 27 42 25.1992 42 22.9965C42 20.7938 40.4241 19 38.5 19ZM38.5 20.4072C39.7622 20.4072 40.7698 21.5545 40.7698 22.9965C40.7698 24.4385 39.7607 25.5928 38.5 25.5928C37.2393 25.5928 36.2302 24.4385 36.2302 22.9965C36.2302 21.5545 37.2378 20.4072 38.5 20.4072Z" fill="#FF5C00"/>
</svg>
